
<global>
amp_veltrack=0
ampeg_release=0.35
</global>

<group>
group_label=Group_0-64
lpc_hicc1=64
lpc_locc1=0

<region>
hikey=A#5
hivel=127
lokey=A5
lovel=1
lpc=5GvBQS03x8Gki7BBzAQpwbQ/dkGMt+jAXmsMQXBGXsDvgz1Bv82QwICe9UA5TQ7AiWjyQIvacb+bLr1AnBzFvxDO50DvnXo/GIW2QPouS8D2pPxAEW8hv/6/AEETJivA
lpc_rms=-29.03
pitch_keycenter=A#5
sample=Piccolo_mordent_semitone_PP_A#4.opus
</region>

<region>
hikey=A#6
hivel=127
lokey=A6
lovel=1
lpc=r9qxQc63WcGdxGdB6kB8wOVDOkEm/DU/IFUuQe5SoL6Sei9BaV4BQIOdtkDszbs/EnvhwAKqusCJ59pA7MqjwOm+Yr9BaZDAUXRiwOgY5790ST7ATeo0wMTimcAb4Jk/
lpc_rms=-29.13
pitch_keycenter=A#6
sample=Piccolo_mordent_semitone_PP_A#5.opus
</region>

<region>
hikey=C6
hivel=127
lokey=B5
lovel=1
lpc=KOxEQZpxhMFmHmVBZiUiwTuxI0GyR7/As1PsQEBtiMAT7WVAmCQMvyYPFkD8MRo/F3SnP2a6bT/LG7q+5cIXQL7AiD+CQQc/TSK6P3JoJj9wR1Y+Cr23Pw56mMBcK4dA
lpc_rms=-37.43
pitch_keycenter=C6
sample=Piccolo_mordent_semitone_PP_C5.opus
</region>

<region>
hikey=C7
hivel=127
lokey=B6
lovel=1
lpc=qrntQWfPnMFH2aFBA3GmwIibbUEsY9JA5AKDQegsUsDW0GxBzW8MQMT+FUEzPpDBzbEIQVz/yT+1a3zAM4kIQPMxEMFvuXLAr38qwNpuJkAo/SHB8KjUQNkAlcC/k8w/
lpc_rms=-28.33
pitch_keycenter=C7
sample=Piccolo_mordent_semitone_PP_C6.opus
</region>

<region>
hikey=D6
hivel=127
lokey=C#6
lovel=1
lpc=CjUiQuSlCcJWHqJBmUWJwTI5b0HAs5C/0J9lQY2dmcDEkztBxj82P9MVWEHi0/o+jEX5QMMfxj6ckjxBLcIPQM3w1kDDxp9ACq6rQA0PcL9tbAbBy9erQF5X8UBqPCRB
lpc_rms=-30.39
pitch_keycenter=D6
sample=Piccolo_mordent_semitone_PP_D5.opus
</region>

<region>
hikey=D7
hivel=127
lokey=C#7
lovel=1
lpc=B5fzQZmEfcEDTZdBqRQDv+VSe0F91iVBQO1FQXzj3UAFBhJBzdzcQPnh+MAYJA1B/7SKQKmdeUDGOw4/797IP2e+uz9mGhlAAADpQO4ZP0DHLmO/WCatQMx6A0A5bSVA
lpc_rms=-26.34
pitch_keycenter=D7
sample=Piccolo_mordent_semitone_PP_D6.opus
</region>

<region>
hikey=E5
hivel=127
lokey=D#5
lovel=1
lpc=4CBQQaLAvcGyXLlBFVGjwaUPlUHxsGfB0MM/QTVKTcF7eE5BabIhwQuJC0HtR9LA+WS8QAM7FsARXSC+5sVbPqGHeD9IvwPAoJMYQE1Hh79SYNE9dzMRP5UdFD9I5Ec/
lpc_rms=-37.86
pitch_keycenter=E5
sample=Piccolo_mordent_semitone_PP_E4.opus
</region>

<region>
hikey=E6
hivel=127
lokey=D#6
lovel=1
lpc=RkWCQYBPisGNK2RBkAEEwYvSDEENxArAxMm9QCPxPb8ucq9A0h4NQDFAJUBSYVRALGkRQEf+SkCHFTBA5GpLQC+oQ0AKpxDAwzx2vye0mUDlBD4/1oZtQI5kyr82H/Q/
lpc_rms=-34.35
pitch_keycenter=E6
sample=Piccolo_mordent_semitone_PP_E5.opus
</region>

<region>
hikey=E7
hivel=127
lokey=D#7
lovel=1
lpc=eH8TQpuY7cAH7oNBKYjWQLDcjkEc0otBEutzQT/jH0H21zJBSDhCwdcXTUHIKgQ+HsC+QIwC/7+WR549IhNKwFWWTUCnVoW9vWkVwcbsXUD301u/3to7wJCxtb/KhLXA
lpc_rms=-22.80
pitch_keycenter=E7
sample=Piccolo_mordent_semitone_PP_E6.opus
</region>

<region>
hikey=F#5
hivel=127
lokey=F5
lovel=1
lpc=dOQEQWOfWcG4HjVBn2INweDBGkH/w+3Ajq7TQCKescDO5XdAzCMCwDdF5z87ht6+NFbAP1WXiL7funq+jMYivrfC7jzfU3c/pQIXP9NiPz/v/jy/oj4ZPh/oTb+yJQxA
lpc_rms=-39.78
pitch_keycenter=F#5
sample=Piccolo_mordent_semitone_PP_F#4.opus
</region>

<region>
hikey=F#6
hivel=127
lokey=F6
lovel=1
lpc=xCGOQQBuXcHORTpBK2q4wEjP5kCcg8g/azeDQGNzqUAd6hBAxbe1QNtivj/2LYxAMltXQAMXokAc3jBAARkAwIrYYb/Z1glAc3N9QBaKqD+5VZw/OYdDPjrza78bqiC/
lpc_rms=-33.11
pitch_keycenter=F#6
sample=Piccolo_mordent_semitone_PP_F#5.opus
</region>

<region>
hikey=F#7
hivel=127
lokey=F7
lovel=1
lpc=7tuuQX5jg8E/sKlBdnvjwJ1Ii0Ey9BjAbuhmQYNkgr+p+odA+qM8QXZM1z9Gvw5BJzWTP5GrGEGMKytAhK/UQJs7Yb9EFklBKY0GwMdgJEGJHYk/0IObQA72L0A95BlA
lpc_rms=-11.68
pitch_keycenter=F#7
sample=Piccolo_mordent_semitone_PP_F#6.opus
</region>

<region>
hikey=G#5
hivel=127
lokey=G5
lovel=1
lpc=42qOQZ4H2cG0M9ZBp52JwUxBikE6EnLB+SmEQRJYH8FwLftAUcVmwND5tUA169G/2nMPQFX3yD9nAMI+cezeP3Cq17wsApBAXmknwHStj0BZ9A7AuxTSQOK818CKFQVB
lpc_rms=-30.78
pitch_keycenter=G#5
sample=Piccolo_mordent_semitone_PP_G#4.opus
</region>

<region>
hikey=G#6
hivel=127
lokey=G6
lovel=1
lpc=sfNQQe36D8G55xRBixpVwFTzvUCsIdq8f53iQNEe8j/EL6dAeCv1P46VkUBf2QdABxCEQCKJTz+KXlTAdZITQCtUL0ARq32/7NJCQJZ0GL+R26q/+a6nvpPoZr8NrCm/
lpc_rms=-33.09
pitch_keycenter=G#6
sample=Piccolo_mordent_semitone_PP_G#5.opus
</region>

<region>
hikey=G#7
hivel=127
lokey=G7
lovel=1
lpc=XdpHQaKNk8AYDDFBpnP9P/B9KUGKCdRAGH/4QIi6h77xPlpBaPGxP1cwM0GmdhhAQn4TQSjdCUCBW+NAXxawQNqTtUDSYqFAAUCQQHkVR0BFIs1A8U2lPZTqLUBpphO+
lpc_rms=-16.79
pitch_keycenter=G#7
sample=Piccolo_mordent_semitone_PP_G#6.opus
</region>
</group>

<group>
group_label=Group_65-127
lpc_hicc1=127
lpc_locc1=65

<region>
hikey=A#5
hivel=127
lokey=A5
lovel=1
lpc=dKW4QbzYDcLD0BtCv/bZwSTlwEHIa2/B8GVZQVnFu8DMrdBAChwDwNpEsEApa4i/bJOFQEmHRb+Yv5ZAXdZzv0WbcEDMNzy/bEjZQIFflsAPmgxBjKqowLXVDkGuzoLA
lpc_rms=-24.05
pitch_keycenter=A#5
sample=Piccolo_mordent_semitone_FF_A#4.opus
</region>

<region>
hikey=A#6
hivel=127
lokey=A6
lovel=1
lpc=3eXxQd5YmsEZCaFBZxBRv/ePF0GOw/lAQdWqQTkQtj+Dxz9BC9ZSQdTdtUARIXZBVhTtwLintb98zYJBBPfNwLZjAEFnskU+VJhQwAhz/cD1GxRBMs8CwXiNlD8PtHS/
lpc_rms=-19.60
pitch_keycenter=A#6
sample=Piccolo_mordent_semitone_FF_A#5.opus
</region>

<region>
hikey=C6
hivel=127
lokey=B5
lovel=1
lpc=cbu9QU4qBsLCv9pBpm2EwXxPc0FxfRHBFLwqQdYLsMCnoM9ACJ2rv2czikB6tb6/OPmfQN+/+r7quh1Ao8zPP55x2j+szbQ/RPDaPy0/0j9BFSRACGzuP4ghW8GePD1B
lpc_rms=-23.97
pitch_keycenter=C6
sample=Piccolo_mordent_semitone_FF_C5.opus
</region>

<region>
hikey=C7
hivel=127
lokey=B6
lovel=1
lpc=Kv9NQuoxF8JqbhlCqwQdwHcqq0Gc8JlBHlmHQZopj0GpqtFBFIsgQR+i6kFVltvBStoFQkR+RkEYwvA+w42bQWuuCsGf6zVBNYeav2UaGEAZ7429+dMNQYH9McAl+6FA
lpc_rms=-13.73
pitch_keycenter=C7
sample=Piccolo_mordent_semitone_FF_C6.opus
</region>

<region>
hikey=D6
hivel=127
lokey=C#6
lovel=1
lpc=Sui3QWFE0sEP+4hBWQoMwU4GHUFdyS7AqH6hQGt8Vz9mbHdA7PnZP4IaKkCHkM8/D0uWQIvW9b6tAZZARZrbP+hM3z+nki9A/H11QBFYBcDKoOfAXgnzQCxKdUCHceg9
lpc_rms=-25.99
pitch_keycenter=D6
sample=Piccolo_mordent_semitone_FF_D5.opus
</region>

<region>
hikey=D7
hivel=127
lokey=C#7
lovel=1
lpc=5kmrQboUEcHr0khBNvz3PwS8PEHDQAVBeN4SQY38E0Er5+lAyOvTQIt+fr/KUThB8gqXQGDE80AwIZtAlObtQLJCn0BoscpAeiMKQY0b1EBKpNc9CIGxQBCdhkBkOw1A
lpc_rms=-24.56
pitch_keycenter=D7
sample=Piccolo_mordent_semitone_FF_D6.opus
</region>

<region>
hikey=E5
hivel=127
lokey=D#5
lovel=1
lpc=omRbQeOU5sEGaPNBg6nNwQBIrUH2voHBSl46Qf0iDcHM/A5BBjPewF7BmECsH4jAJveYQEmamMCnnFlAWc7Av/bKEEB1g3a/58vjPlvqIj9WFKW/tiONPwxU+b9COyRA
lpc_rms=-31.33
pitch_keycenter=E5
sample=Piccolo_mordent_semitone_FF_E4.opus
</region>

<region>
hikey=E6
hivel=127
lokey=D#6
lovel=1
lpc=kBhcQUDjhMFv7YFBg73/wL00FEESo5HAkrHYQPvTO7/PrJNACWS/P/54KECwPRVAzrYCQFgfZ0BJtWQ/6jtbQEHhPEBW0zPAWyhcvmCsqUDNOIO/PFM2v0yRGEDthYI+
lpc_rms=-29.48
pitch_keycenter=E6
sample=Piccolo_mordent_semitone_FF_E5.opus
</region>

<region>
hikey=E7
hivel=127
lokey=D#7
lovel=1
lpc=1Vm7Qe+LOMHub4NBzNNBv53YPUFKpOdA9XzqQKFrTEFrtRLAEa7hwOwbgEGc+V7A5tsdQdjECcC+Jr9ABYsrQG4I0byndiFBIjQHwHXXjEAJAGu/cBuvP4QNiT/PbMO/
lpc_rms=-24.04
pitch_keycenter=E7
sample=Piccolo_mordent_semitone_FF_E6.opus
</region>

<region>
hikey=F#5
hivel=127
lokey=F5
lovel=1
lpc=33X+QAuCg8HDmIpBYHdSwaQqOEEoAiDBrt0UQYaZ+8Dz6tNARzOYwHSKXUCkMey/8kwMQPlhtL9raFs/SeLBPaeRX7841/4/6b0PvxJDnD4DGwe/6RT7P/tFNcDbthpA
lpc_rms=-33.20
pitch_keycenter=F#5
sample=Piccolo_mordent_semitone_FF_F#4.opus
</region>

<region>
hikey=F#6
hivel=127
lokey=F6
lovel=1
lpc=idfZQVLq1cEKprRBHmAlwZ1MekEZ56/AR/IrQWPw6D/jf/NA6viMQGPEs0AXyWtAQPu8QKDrp0BMQdVASnStwHjsQ8C1WCxBTFj7PpnIeT9Rxz8/rkyiP8UOrD8kPe+/
lpc_rms=-24.51
pitch_keycenter=F#6
sample=Piccolo_mordent_semitone_FF_F#5.opus
</region>

<region>
hikey=F#7
hivel=127
lokey=F7
lovel=1
lpc=7tuuQX5jg8E/sKlBdnvjwJ1Ii0Ey9BjAbuhmQYNkgr+p+odA+qM8QXZM1z9Gvw5BJzWTP5GrGEGMKytAhK/UQJs7Yb9EFklBKY0GwMdgJEGJHYk/0IObQA72L0A95BlA
lpc_rms=-11.68
pitch_keycenter=F#7
sample=Piccolo_mordent_semitone_FF_F#6.opus
</region>

<region>
hikey=G#5
hivel=127
lokey=G5
lovel=1
lpc=5o50QRU01MECY+xB532lweowi0FzDkbBV5MiQf/yYsDX5UxANticv5IAa0ATn2q/0dWiP14OtD9VnqE/ntm3vopfKEBfUHM+4ERbP0qFfT/KSIE/l45pQJh/rMCwzttA
lpc_rms=-25.72
pitch_keycenter=G#5
sample=Piccolo_mordent_semitone_FF_G#4.opus
</region>

<region>
hikey=G#6
hivel=127
lokey=G6
lovel=1
lpc=pBS8QSTow8FIZLhBUR0uwVwLLEFapdq/rDnQQH4J9kA4E8O/txMBQa8roj33NLZAk9F9viApRkAl3WHBlSdOQbv0j8DO172/SK+dQNY3rMAKqEM/h/OkwLy9EkAm3H3A
lpc_rms=-21.99
pitch_keycenter=G#6
sample=Piccolo_mordent_semitone_FF_G#5.opus
</region>

<region>
hikey=G#7
hivel=127
lokey=G7
lovel=1
lpc=XdpHQaKNk8AYDDFBpnP9P/B9KUGKCdRAGH/4QIi6h77xPlpBaPGxP1cwM0GmdhhAQn4TQSjdCUCBW+NAXxawQNqTtUDSYqFAAUCQQHkVR0BFIs1A8U2lPZTqLUBpphO+
lpc_rms=-16.79
pitch_keycenter=G#7
sample=Piccolo_mordent_semitone_FF_G#6.opus
</region>
</group>